<svg xmlns="http://www.w3.org/2000/svg" xmlns:xlink="http://www.w3.org/1999/xlink" viewBox="0 0 162.17 175.26"><defs><linearGradient id="Playoffs_Gradient_2" x1="81.19" y1="76.64" x2="81.19" y2="161.49" gradientUnits="userSpaceOnUse"><stop offset="0.15" stop-color="#fff"/><stop offset="0.29" stop-color="#fafafa"/><stop offset="0.46" stop-color="#ebeced"/><stop offset="0.64" stop-color="#d2d5d7"/><stop offset="0.84" stop-color="#afb5b9"/><stop offset="0.97" stop-color="#949ca1"/></linearGradient><linearGradient id="NHL_SHIELD_8_-_430" x1="11668.11" y1="10816.5" x2="11683.61" y2="10816.5" gradientTransform="translate(-3147.22 -2859.59) scale(0.28)" gradientUnits="userSpaceOnUse"><stop offset="0.11" stop-color="#fff"/><stop offset="0.24" stop-color="#dddfe1"/><stop offset="0.44" stop-color="#a8afb3"/><stop offset="0.54" stop-color="#949ca1"/></linearGradient><linearGradient id="NHL_SHIELD_7_-_430" x1="96.57" y1="118.85" x2="96.57" y2="106.69" gradientUnits="userSpaceOnUse"><stop offset="0" stop-color="#fff"/><stop offset="0.35" stop-color="#fff"/><stop offset="0.56" stop-color="#949ca1"/><stop offset="1" stop-color="#949ca1"/></linearGradient><linearGradient id="NHL_SHIELD_6_-_430" x1="64.83" y1="132.77" x2="81.21" y2="132.77" gradientUnits="userSpaceOnUse"><stop offset="0.15" stop-color="#fff"/><stop offset="0.21" stop-color="#fafafa"/><stop offset="0.29" stop-color="#ebeced"/><stop offset="0.37" stop-color="#d2d5d7"/><stop offset="0.45" stop-color="#afb5b9"/><stop offset="0.51" stop-color="#949ca1"/></linearGradient><linearGradient id="NHL_SHIELD_5_-_430" x1="90.92" y1="131.95" x2="71.51" y2="104.21" gradientUnits="userSpaceOnUse"><stop offset="0" stop-color="#949ca1"/><stop offset="0.01" stop-color="#99a1a5"/><stop offset="0.12" stop-color="#c2c6c8"/><stop offset="0.2" stop-color="#dbddde"/><stop offset="0.25" stop-color="#e4e5e6"/><stop offset="0.75" stop-color="#e4e5e6"/><stop offset="0.8" stop-color="#dcdedf"/><stop offset="0.88" stop-color="#c6cacc"/><stop offset="0.97" stop-color="#a3aaae"/><stop offset="1" stop-color="#949ca1"/></linearGradient><linearGradient id="NHL_SHIELD_4_-_430" x1="70.47" y1="102.42" x2="81.21" y2="102.42" gradientUnits="userSpaceOnUse"><stop offset="0.25" stop-color="#fff"/><stop offset="0.34" stop-color="#fafafa"/><stop offset="0.45" stop-color="#ebeced"/><stop offset="0.57" stop-color="#d2d5d7"/><stop offset="0.7" stop-color="#afb5b9"/><stop offset="0.79" stop-color="#949ca1"/></linearGradient><linearGradient id="NHL_SHIELD_3_-_430" x1="81.21" y1="128.79" x2="98.25" y2="128.79" gradientUnits="userSpaceOnUse"><stop offset="0.2" stop-color="#fff"/><stop offset="0.33" stop-color="#fafbfb"/><stop offset="0.47" stop-color="#edeeef"/><stop offset="0.63" stop-color="#d7dadc"/><stop offset="0.79" stop-color="#b8bdc0"/><stop offset="0.93" stop-color="#949ca1"/></linearGradient><linearGradient id="NHL_SHIELD_2_-_430" x1="81.21" y1="102.42" x2="91.95" y2="102.42" xlink:href="#NHL_SHIELD_4_-_430"/><linearGradient id="NHL_SHIELD_1_-_430" x1="64.18" y1="103.81" x2="71.01" y2="103.81" gradientUnits="userSpaceOnUse"><stop offset="0.39" stop-color="#fff"/><stop offset="0.47" stop-color="#fafafa"/><stop offset="0.57" stop-color="#ebeced"/><stop offset="0.68" stop-color="#d2d5d7"/><stop offset="0.79" stop-color="#afb5b9"/><stop offset="0.87" stop-color="#949ca1"/></linearGradient><linearGradient id="Stanley_Cup_Word_Gradient" x1="150.37" y1="82.83" x2="150.37" y2="75.23" gradientUnits="userSpaceOnUse"><stop offset="0" stop-color="#fff"/><stop offset="0.15" stop-color="#fff"/><stop offset="0.25" stop-color="#fafafa"/><stop offset="0.38" stop-color="#ebeced"/><stop offset="0.51" stop-color="#d1d5d7"/><stop offset="0.66" stop-color="#aeb5b9"/><stop offset="0.81" stop-color="#828c92"/><stop offset="0.82" stop-color="#7c868d"/><stop offset="1" stop-color="#7c868d"/></linearGradient><linearGradient id="Stanley_Cup_Word_Gradient-2" x1="97.79" y1="82.7" x2="97.79" y2="75.82" xlink:href="#Stanley_Cup_Word_Gradient"/><linearGradient id="Stanley_Cup_Word_Gradient-3" x1="84.03" y1="82.89" x2="84.03" y2="75.05" xlink:href="#Stanley_Cup_Word_Gradient"/><linearGradient id="Stanley_Cup_Word_Gradient-4" x1="70.9" y1="82.86" x2="70.9" y2="75.2" xlink:href="#Stanley_Cup_Word_Gradient"/><linearGradient id="Stanley_Cup_Word_Gradient-5" x1="59.83" y1="82.75" x2="59.83" y2="75.61" xlink:href="#Stanley_Cup_Word_Gradient"/><linearGradient id="Stanley_Cup_Word_Gradient-6" x1="51.16" y1="82.56" x2="51.16" y2="76.38" xlink:href="#Stanley_Cup_Word_Gradient"/><linearGradient id="Stanley_Cup_Word_Gradient-7" x1="39.45" y1="82.44" x2="39.45" y2="76.82" xlink:href="#Stanley_Cup_Word_Gradient"/><linearGradient id="Stanley_Cup_Word_Gradient-8" x1="27.23" y1="82.31" x2="27.23" y2="77.34" xlink:href="#Stanley_Cup_Word_Gradient"/><linearGradient id="Stanley_Cup_Word_Gradient-9" x1="135.06" y1="83.03" x2="135.06" y2="75.44" xlink:href="#Stanley_Cup_Word_Gradient"/><linearGradient id="Stanley_Cup_Word_Gradient-10" x1="117.43" y1="83.98" x2="117.43" y2="77.96" xlink:href="#Stanley_Cup_Word_Gradient"/><linearGradient id="Stanley_Cup_Word_Gradient-11" x1="13.24" y1="84.25" x2="13.24" y2="77.34" xlink:href="#Stanley_Cup_Word_Gradient"/><linearGradient id="Stanley_Cup_Word_Gradient-12" x1="44.85" y1="99.72" x2="44.85" y2="92.7" xlink:href="#Stanley_Cup_Word_Gradient"/><linearGradient id="Stanley_Cup_Word_Gradient-13" x1="59.68" y1="99.72" x2="59.68" y2="92.69" xlink:href="#Stanley_Cup_Word_Gradient"/><linearGradient id="Stanley_Cup_Word_Gradient-14" x1="74.66" y1="99.73" x2="74.66" y2="92.65" xlink:href="#Stanley_Cup_Word_Gradient"/><linearGradient id="Stanley_Cup_Word_Gradient-15" x1="103.88" y1="99.75" x2="103.88" y2="92.56" xlink:href="#Stanley_Cup_Word_Gradient"/><linearGradient id="Stanley_Cup_Word_Gradient-16" x1="116.89" y1="99.75" x2="116.89" y2="92.55" xlink:href="#Stanley_Cup_Word_Gradient"/><linearGradient id="Stanley_Cup_Word_Gradient-17" x1="31.52" y1="99.72" x2="31.52" y2="92.7" xlink:href="#Stanley_Cup_Word_Gradient"/><linearGradient id="Stanley_Cup_Word_Gradient-18" x1="90.06" y1="99.72" x2="90.06" y2="92.62" xlink:href="#Stanley_Cup_Word_Gradient"/><linearGradient id="Stanley_Cup_Word_Gradient-19" x1="130.74" y1="99.72" x2="130.74" y2="92.61" xlink:href="#Stanley_Cup_Word_Gradient"/></defs><g id="Layer_2" data-name="Layer 2"><g id="Art"><path d="M51.32,145.89,81.21,157.8l29.89-11.91a13.1,13.1,0,0,0,6.78-8l7.73-35.76h-1.34l-7.68,35.49a11.76,11.76,0,0,1-6,7.07l-29.4,11.72L51.8,144.67a11.79,11.79,0,0,1-6-7.07l-7.67-35.49H36.8l7.74,35.76A13,13,0,0,0,51.32,145.89Z" fill="#fff"/><path d="M89,30.67v-1c-.62-.07-1.34-.14-2.18-.19v1C87.68,30.54,88.41,30.6,89,30.67Z" fill="#fff"/><path d="M78,29.41l-1.41.05v1L78,30.37Z" fill="#fff"/><path d="M76.47,34.78l1.52,0V31.37a.82.82,0,0,1,.13-.44L76.65,31a.92.92,0,0,0-.18.53Z" fill="#fff"/><path d="M89,31.22c-.64-.07-1.37-.13-2.18-.18v3.77c.83,0,1.55.07,2.18.11Z" fill="#fff"/><path d="M88.73,37.17c.91,0,1.69.07,2.37.11a3.4,3.4,0,0,0-1.81-1.73c-.65,0-1.4-.07-2.28-.1A3,3,0,0,1,88.73,37.17Z" fill="#fff"/><path d="M77.3,37.07a5.8,5.8,0,0,1,.6-1.67l-1.39,0a6.09,6.09,0,0,0-.59,1.68Z" fill="#fff"/><path d="M75.9,42.55l1.37,0v-5l-1.37,0Z" fill="#fff"/><path d="M91.16,37.74l-2.33-.1v5l2.33.09Z" fill="#fff"/><path d="M89.54,48.16l2.56.06C92,45.55,88.58,45.52,91,43.7l-2.22-.11C86.38,45.26,89.44,45.47,89.54,48.16Z" fill="#fff"/><path d="M77.43,43.45l-1.34,0c1.07,2-.89,2.17-.74,4.64l1.36,0C76.57,45.64,78.54,45.52,77.43,43.45Z" fill="#fff"/><path d="M92.09,48.91l-2.57,0V53.3l2.57,0Z" fill="#fff"/><path d="M76.73,48.87h-1.4v4.4h1.4Z" fill="#fff"/><path d="M76.9,54.22H75.47c1.16,2.11-1.14,2-.87,4.57H76C75.75,56.21,78.07,56.34,76.9,54.22Z" fill="#fff"/><path d="M94.48,58.66c.39-2.48-3.64-2.63-1.43-4.36l-2.1,0c-2.09,2.36,1.68,2.1,1,4.46Z" fill="#fff"/><path d="M91.07,59.82c2.22.49,7.53,1.88,7.53,4.12,0,1.34-1.76,1.11-17.4,1.91,0,0,15.27.18,25.93-.78a1.1,1.1,0,0,0-.6-.7c-2.11.19-4.51.38-4.51.38.49-3.29-5.21-4.57-8-5Z" fill="#fff"/><path d="M72.32,65.33l1.83,0c-.17-3.32,1.36-5,2-5.49H74.36C73.71,60.38,72.16,62,72.32,65.33Z" fill="#fff"/><path d="M77.43,23.7l1.24-.11v-.37l-1.24.11Z" fill="#fff"/><path d="M86.27,23.5c-.37-.07-.79-.12-1.25-.17v.37c.47.05.89.11,1.25.17Z" fill="#fff"/><path d="M70.24,4.55l-.08-.91L69,3.8l.08.91Z" fill="#fff"/><path d="M96.44,5.32c0-.31,0-.62,0-.92-.75-.19-1.66-.38-2.77-.56q0,.5,0,.93C94.81,4.94,95.71,5.13,96.44,5.32Z" fill="#fff"/><path d="M91,4.42c0-.31-.07-.63-.12-.94-2.51-.25-5.69-.42-9.7-.42H79.92c0,.31-.1.62-.14.92h1.43A97.18,97.18,0,0,1,91,4.42Z" fill="#fff"/><path d="M94.29,8.19a3,3,0,0,1,2-1c0-.28.06-.78.1-1.36-.73-.19-1.62-.37-2.69-.54,0,1.18,0,2,0,2.36A5.15,5.15,0,0,1,94.29,8.19Z" fill="#fff"/><path d="M86.16,8a5.53,5.53,0,0,1,4-1.51,6.2,6.2,0,0,1,1,.08c0-.52,0-1.06-.05-1.6a97.31,97.31,0,0,0-9.86-.44H79.72c-.07.65-.1,1.29-.11,1.92a8,8,0,0,1,1.6-.15A7.57,7.57,0,0,1,86.16,8Z" fill="#fff"/><path d="M69.29,7.27a5.31,5.31,0,0,1,1.15-.5l-.15-1.68-1.17.16Z" fill="#fff"/><path d="M93.36,13.82c1,0,.3,1.26.78,1.26.28,0,.15-.71.69-.79a16.43,16.43,0,0,0,1.08-6.56,2.88,2.88,0,0,0-1.62,1.16A4.18,4.18,0,0,0,93.43,8a16.27,16.27,0,0,1-1.06,6.12.67.67,0,0,0,.22,0C92.9,14.18,92.83,13.82,93.36,13.82Z" fill="#fff"/><path d="M69.64,11.41c0,.51.2,1.15.56,1.15s.15-1.12.62-1.52l-.34-3.82a5.35,5.35,0,0,0-1.15.55Z" fill="#fff"/><path d="M81.76,14.74c1.11,0,.28-1.57,1.58-1.57.94,0,.65,1,1.41,1,1.09,0,.42-2.38,1.72-2.38.81,0,.56.8,1.33.8,1,0,.33-2.11,1.45-2.11s.39,1.66,1.3,1.76A32.37,32.37,0,0,0,91.12,7a6.2,6.2,0,0,0-1-.08,4.83,4.83,0,0,0-3.94,1.7,6.82,6.82,0,0,0-5-1.89,7.81,7.81,0,0,0-1.6.16A25.92,25.92,0,0,0,80.7,14C80.92,14.34,81.07,14.74,81.76,14.74Z" fill="#fff"/><path d="M66.08,14.78c-.59,0,.31.82.37,2.19C66.45,17,66.53,14.78,66.08,14.78Z" fill="#fff"/><path d="M67.4,13.91a.39.39,0,0,0-.38.38,5.17,5.17,0,0,1,.84,3C68,15.79,68,13.91,67.4,13.91Z" fill="#fff"/><path d="M69.29,16.54c.47-1.54.88-4.24-.05-4.24a.49.49,0,0,0-.5.5C68.74,13.32,69.52,13.54,69.29,16.54Z" fill="#fff"/><path d="M71.1,17.74c.57-3.07,1-6.54.17-6.54a.42.42,0,0,0-.46.38C70.81,12.2,71.67,12.55,71.1,17.74Z" fill="#fff"/><path d="M73.86,12.26a.43.43,0,0,0-.45.44c0,.3.87,1-.3,5.7C74.09,16.92,74.85,12.26,73.86,12.26Z" fill="#fff"/><path d="M77.53,14.09a.65.65,0,0,0-.6-.64c-1.28,0-.08,2.19-1.77,5.85A11.08,11.08,0,0,0,77.09,15C77.16,14.6,77.53,14.48,77.53,14.09Z" fill="#fff"/><path d="M80.53,14.57a.57.57,0,1,0-1.14,0c0,1.94-1.15,2.75-2.51,5.48C78.79,17,80.53,16.27,80.53,14.57Z" fill="#fff"/><path d="M82.77,14.13c-.35,3-1.65,1.75-3.22,5.06,1.47-2.47,3-1.39,4-5.2C83.69,13.61,82.88,13.24,82.77,14.13Z" fill="#fff"/><path d="M86,12.7c0,3.35-1.79,3.78-4.2,6.33,2.33-1.8,5.2-3.12,5.2-6.33A.5.5,0,1,0,86,12.7Z" fill="#fff"/><path d="M88.76,11.43a9,9,0,0,1-3.59,7.06c2.44-.91,4.59-5.16,4.59-7.21C89.76,10.6,88.76,10.57,88.76,11.43Z" fill="#fff"/><path d="M87.61,18.76s3.34-1.51,4.45-6.41c.1-.46-.75-.61-.8,0A9.81,9.81,0,0,1,87.61,18.76Z" fill="#fff"/><path d="M93,14.5a9.35,9.35,0,0,1-2.75,4.22,9,9,0,0,0,3.45-4.1A.36.36,0,1,0,93,14.5Z" fill="#fff"/><path d="M94.56,14.9a7.39,7.39,0,0,1-2.71,4.27,8.25,8.25,0,0,0,3.47-4.06C95.46,14.74,94.67,14.35,94.56,14.9Z" fill="#fff"/><path d="M94.77,18.23a7.8,7.8,0,0,0,2.32-3.4.34.34,0,1,0-.67-.05A7.68,7.68,0,0,1,94.77,18.23Z" fill="#fff"/><path d="M76.58,29C77,29,77.49,29,78,29v-.16a1,1,0,0,1-.27-.07l-1.14.07Z" fill="#fff"/><path d="M86.85,28.85v.23c.84.07,1.56.14,2.18.22v-.24L88.16,29a.7.7,0,0,1-.71-.07Z" fill="#fff"/><path d="M87.15,27.17a1.89,1.89,0,0,1-.65-1.64l-1.25-.14a2.12,2.12,0,0,0,.38,1.55,1,1,0,0,1,1,.3l.33,0A.52.52,0,0,1,87.15,27.17Z" fill="#fff"/><path d="M78.92,27A3.24,3.24,0,0,0,79,25.24c-.42,0-.83.06-1.21.09A3.14,3.14,0,0,1,77.56,27h0A.84.84,0,0,1,78.75,27Z" fill="#fff"/><path d="M86.18,27.12c-.38,0-.2,1.1.34,1.13S86.56,27.07,86.18,27.12Z" fill="#fff"/><path d="M91,28.79c.36-.19-.3-1.05-.53-1S90.6,29,91,28.79Z" fill="#fff"/><path d="M84.43,27c-.46,0-.28,1.22.35,1.22S84.82,27,84.43,27Z" fill="#fff"/><path d="M82.74,28c.56,0,.21-1.22-.43-1.22C82,26.82,82.11,28,82.74,28Z" fill="#fff"/><path d="M80.3,28c.52-.15-.11-.86,0-1.14C79.41,26.42,79.61,28.25,80.3,28Z" fill="#fff"/><path d="M91.77,28.9c.25-.13-.24-.84-.43-.87S91.51,29,91.77,28.9Z" fill="#fff"/><path d="M92.27,29c.23-.17-.18-.73-.33-.7S92,29.19,92.27,29Z" fill="#fff"/><path d="M89.72,28.63c.52-.13-.07-1.06-.39-1.09S89.22,28.75,89.72,28.63Z" fill="#fff"/><path d="M88.26,28.5c.52-.13-.06-1.12-.38-1.15S87.76,28.62,88.26,28.5Z" fill="#fff"/><path d="M71.8,28.33c.24.14.27-.43.53-.68C71.74,27.65,71.64,28.24,71.8,28.33Z" fill="#fff"/><path d="M70.84,28.5c.16.09.23-.4.39-.57C70.85,28,70.73,28.45,70.84,28.5Z" fill="#fff"/><path d="M78.18,28.11c.46,0,0-.72.18-1C77.65,26.55,77.59,28.13,78.18,28.11Z" fill="#fff"/><path d="M76.28,28.07c.4.1.25-.67.43-.93C76,26.78,75.88,28,76.28,28.07Z" fill="#fff"/><path d="M73.09,28.22c.26.1.3-.53.5-.75C73,27.37,72.77,28.11,73.09,28.22Z" fill="#fff"/><path d="M74.63,28.16c.31.09.22-.59.46-.84C74.37,27.18,74.22,28,74.63,28.16Z" fill="#fff"/><path d="M67.43,115.14c-.48,3-2.49,5.52-2.49,8.51a10.68,10.68,0,0,0,.44,3.14c1.26,4.21,5,6.55,8.67,7.47a11.13,11.13,0,0,1-8.69-10.61C65.36,120,67.08,118.6,67.43,115.14Z" fill="#fff"/><path d="M88.37,134.26c5.06-1.28,9.08-5,9.08-10.61a12.12,12.12,0,0,0-1.1-4.8,12.81,12.81,0,0,1-1.43-5c0,4.45,2.13,5.71,2.13,9.78A11.12,11.12,0,0,1,88.37,134.26Z" fill="#fff"/><path d="M147.32,81.83l1.09-4.27h1.93c3.62,0,7-1.69,7.67-4.37s-1.82-4.37-5.44-4.37H146l-3.33,13Zm2.54-10h2.55a1,1,0,0,1,1,1.31,1.79,1.79,0,0,1-1.64,1.31h-2.55Zm-1,1.17-.56,2.19h3.28a2.82,2.82,0,0,0,2.54-2c1.1.11,2.11.23,3,.37-.88,2.09-3.89,3.18-6.59,3.18h-2.67s-.83,3.27-1.09,4.28h-3.16c.21-.8,1.25-4.89,2-8C146.76,73.06,147.82,73.05,148.83,73.05Z" fill="#fff"/><path d="M47.83,81.83h4.63l2-8,3.15,8h5l3.33-13H61.36l-1.85,7.26-2.86-7.26H49.59a3.07,3.07,0,0,1,.79,3.06Zm10.08-7.58,1.7,4.32L60.79,74,64,73.61c-.77,3-1.72,6.73-1.91,7.49H58.25l-2.61-6.63Zm-4.35.41L51.91,81.1H48.76l1.57-6.17Z" fill="#fff"/><path d="M75.64,81.83l1.79-3H70.07l2.54-10H68l-3.33,13ZM70.8,73l-1.66,6.49h7.08l-.93,1.59H65.58l2-7.84Z" fill="#fff"/><path d="M98.37,73.57l-2-4.75H79.26a3.07,3.07,0,0,1,.79,3.06l-2.55,10H89.06l1.79-3H82.91L83.38,77h6.24l.78-3.06H84.16l.52-2H91.3L92,69.23l3.33,7.38L94,81.83H98.6l1.34-5.21,7.88-7.8H102.9Zm-8.9,1.07c-.15.58-.26,1-.4,1.58H82.83L82,79.51h7.65l-.92,1.59H78.42c.26-1,1.59-6.19,2.13-8.31,1.07,0,2.12,0,3.13.09l-.45,1.76Zm9.79,1.73L98.05,81.1H94.9l1.21-4.72L95,73.93c1,.15,2,.31,2.83.47.13.29.2.48.2.48l.36-.37c.82.16,1.58.31,2.28.47Z" fill="#fff"/><path d="M36.21,81.83l1.65-3h4.36l.23,3h5l-1.9-13h-6l-8.46,13Zm5.46-9.93L42,76.1H39.36Zm-2.85,3.8-.63,1.14h4.65l-.11-1.36,2.94-.19c.37,2.49.73,5,.85,5.81H43.17c-.05-.7-.23-3-.23-3H37.5s-1.26,2.28-1.65,3H32.37l3.42-5.27Z" fill="#fff"/><path d="M26.62,71.88l-2.55,10H28.7l2.55-10h4.12l1.56-3.06H23.28l-1.56,3.06Zm1.53,9.22H25c.15-.6.73-2.86,1.3-5.08l3.16,0C28.89,78.22,28.31,80.5,28.15,81.1Z" fill="#fff"/><path d="M133.39,82c4.08,0,7.64-1,8.68-5l2.09-8.17h-4.63L137.44,77c-.39,1.53-1.74,2-3.27,2s-2.65-.45-2.26-2L134,68.82h-4.63L127.28,77C126.24,81.07,129.3,82,133.39,82ZM128,77s.23-.92.54-2.12l3.27-.42c-.36,1.4-.66,2.54-.66,2.54-.25,1-.23,2.72,2.81,2.72,2.27,0,3.76-1,4.2-2.72,0,0,.43-1.67.88-3.44l3.23-.27L141.34,77c-.78,3-3.1,4.3-7.76,4.3S127.25,80,128,77Z" fill="#fff"/><path d="M119.48,83.39a20.76,20.76,0,0,0,6-.77l-.44-3.12a14.14,14.14,0,0,1-4.36.59c-5.64,0-6.06-3.54-5.63-5.22.65-2.57,2.81-5.22,7.88-5.22a13.31,13.31,0,0,1,3.72.45l1.74-3a14.58,14.58,0,0,0-5-.74c-8.94,0-12.75,4.35-13.82,8.52C108.69,78.51,111.14,83.39,119.48,83.39Zm-5.26-7.12c.08,2,1.44,4.55,6.32,4.55a16.1,16.1,0,0,0,3.88-.43c.08.56.16,1.1.25,1.74a23,23,0,0,1-5,.52c-6.45,0-9.37-3.06-9.48-6.22C111.35,76.41,112.68,76.36,114.22,76.27Z" fill="#fff"/><path d="M20.84,78.87c1.44-5.61-8.09-5.42-7.44-7.94.19-.74,1.44-1.27,3.28-1.27a10.34,10.34,0,0,1,4.09.76l1.63-3.17a13.7,13.7,0,0,0-5.28-.9c-5.66,0-8.41,2.29-8.93,4.29-1.44,5.64,8.12,5.2,7.41,8-.25,1-1.76,1.47-3.33,1.47A12.61,12.61,0,0,1,7,79L5.24,82.12s2.06,1.27,6.57,1.27S20.09,81.83,20.84,78.87ZM7.2,80a14,14,0,0,0,4.88.84c2.24,0,3.92-.86,4.26-2.2.41-1.63-1.32-2.37-3.22-3.17q2.78.27,6.19.44a2.9,2.9,0,0,1,.8,3c-.72,2.79-4.82,3.78-8.11,3.78a15.14,15.14,0,0,1-5.76-1C6.56,81.14,6.85,80.61,7.2,80Z" fill="#fff"/><path d="M41.94,86,38.61,99h11l1.79-3.06H44l2.55-10Zm8.23,10.69-.92,1.58H39.53c.22-.83,1.34-5.21,2.14-8.36h3.16c-.75,2.94-1.74,6.79-1.74,6.79Z" fill="#fff"/><path d="M59.79,86,51.33,99h5.12l1.64-3h4.36l.24,3h5l-1.9-13Zm2.45,7.28H59.6l2.31-4.21Zm1.17,5c-.06-.69-.24-3-.24-3H57.73l-1.64,3H52.6l5.28-8.11,2.6.11L58.42,94h4.65l-.28-3.65,2.83.15c.44,3,1,6.74,1.14,7.75Z" fill="#fff"/><path d="M74.85,90.73l-2-4.75H68.27l3.52,7.79L70.46,99h4.63l1.33-5.22L84.3,86H79.38Zm.9,2.8s-.94,3.64-1.21,4.72H71.38l1.21-4.71s-.55-1.23-1.21-2.67l2.72.19c.25.58.41,1,.41,1l.84-.87,2.59.2Z" fill="#fff"/><path d="M98.89,99h4.63l1.25-4.88h2.9l2.61-3h-4.73l.52-2h4.79L113.47,86H100.65a3.06,3.06,0,0,1,.79,3.06Zm9-6.21c-.2.25-.37.44-.5.6h-3.22L103,98.25H99.81c.18-.68.85-3.32,1.44-5.6C103.56,92.71,105.8,92.76,107.94,92.78Z" fill="#fff"/><path d="M111.84,99h4.63l1.25-4.88h2.9l2.61-3H118.5l.52-2h4.8l2.6-3.06H113.6a3.06,3.06,0,0,1,.79,3.06ZM121,92.66l-.62.72h-3.22s-1,3.81-1.25,4.87h-3.15c.17-.67.82-3.21,1.4-5.46C116.58,92.77,118.86,92.72,121,92.66Z" fill="#fff"/><path d="M23.73,99h4.63l1.09-4.27h1.93c3.62,0,7-1.69,7.68-4.37S37.24,86,33.62,86H25.49A3.06,3.06,0,0,1,26.28,89ZM30.91,89h2.54a1,1,0,0,1,1,1.31,1.8,1.8,0,0,1-1.64,1.31H30.23Zm-4.26,1.44,3.2-.21-.54,2.13h3.28a2.82,2.82,0,0,0,2.57-2.05,1.8,1.8,0,0,0,.06-.32l3.17-.09a2.93,2.93,0,0,1-.07.41C37.71,92.73,34.46,94,31.57,94H28.9l-1.09,4.27H24.66C24.89,97.33,26,92.83,26.65,90.48Z" fill="#fff"/><path d="M91.92,85.79c-6.64,0-9.33,3-10.28,6.7s.21,6.7,6.85,6.7,9.34-3,10.29-6.7S98.57,85.79,91.92,85.79Zm-5.21,6.7c.52-2,1.75-3.65,4.43-3.65s3.08,1.63,2.56,3.65S92,96.13,89.28,96.13,86.2,94.5,86.71,92.49Zm2,6c-7,0-7-3.4-6.3-6,.06-.25.14-.51.23-.78l3.52.24c0,.17-.11.35-.15.54-.73,2.82.38,4.38,3.11,4.38s4.63-1.56,5.35-4.38c0,0,0-.06,0-.09l3.56.15C97.36,95.1,95.65,98.45,88.68,98.45Z" fill="#fff"/><path d="M133.43,88.84a8.76,8.76,0,0,1,3.28.6l1.5-3a11.59,11.59,0,0,0-4.37-.69c-4.06,0-6.91,1.39-7.46,3.52-1.13,4.42,6.44,4.58,6.09,6-.13.51-1.13.87-2.47.87a10.53,10.53,0,0,1-4.33-.88l-1.59,2.93s1.7,1,5.51,1,6.83-1.27,7.45-3.7c1.08-4.23-6.43-4.6-6.1-5.9C131,89.29,131.86,88.84,133.43,88.84Zm-.06,3.09c1.68.71,3.41,1.72,2.94,3.56-.56,2.18-3.74,3-6.53,3a13.33,13.33,0,0,1-4.69-.71l.82-1.52a12.06,12.06,0,0,0,3.9.65c1.84,0,3.14-.62,3.4-1.61.38-1.49-2.56-1.88-4.52-3Z" fill="#fff"/><path d="M50.05,149.07l31.16,12.42,31.16-12.42a16.37,16.37,0,0,0,8.86-10.47l7.85-36.3a22.46,22.46,0,0,1-2.56-.19h-.91l-7.73,35.76a13.1,13.1,0,0,1-6.78,8L81.21,157.8,51.32,145.89a13,13,0,0,1-6.78-8L36.8,102.11H33.3l7.89,36.49A16.34,16.34,0,0,0,50.05,149.07Z" fill="url(#Playoffs_Gradient_2)"/><path d="M64.94,123.65c0-3,2-5.48,2.49-8.51,0-.4.06-.82.06-1.27a14.58,14.58,0,0,0-1.65-6.4l-1.66-.78,1.13,2.55a11.59,11.59,0,0,1,1,4.64c0,4.34-2.13,5.21-2.13,9.77a11.47,11.47,0,0,0,.66,3.89,2.55,2.55,0,0,1,.55-.75A10.68,10.68,0,0,1,64.94,123.65Z" fill="url(#NHL_SHIELD_8_-_430)"/><path d="M94.92,113.87a12.81,12.81,0,0,0,1.43,5l.89,0a11.7,11.7,0,0,1-1.12-4.94,11.42,11.42,0,0,1,1-4.64l1.12-2.55-1.65.78A14.52,14.52,0,0,0,94.92,113.87Z" fill="url(#NHL_SHIELD_7_-_430)"/><path d="M81.21,137s-1.13-1.22-1.3-1.39c-1.36-.48-3.2-.66-5.86-1.33-3.64-.92-7.41-3.26-8.67-7.47a2.55,2.55,0,0,0-.55.75,12.82,12.82,0,0,0,8.92,7.9c2.49.63,3.65.69,5.5,1.21l2,2.1Z" fill="url(#NHL_SHIELD_6_-_430)"/><path d="M66.56,123.65c0,5.18,4,8.48,7.79,9.43,3,.76,4.9.84,6.2,1.47,0,0,.48.43.66.63.18-.2.65-.63.65-.63,1.3-.63,3.24-.71,6.21-1.47,3.74-1,7.78-4.25,7.78-9.43,0-3.71-2.12-5.07-2.12-9.78a14.12,14.12,0,0,1,1.19-5.62,6.08,6.08,0,0,1-4-4.07,7.05,7.05,0,0,1-4.38,1.72,7.89,7.89,0,0,1-5.28-2.23,7.9,7.9,0,0,1-5.29,2.23,7,7,0,0,1-4.37-1.72,6.08,6.08,0,0,1-4.06,4.07,14,14,0,0,1,1.2,5.62C68.69,118.58,66.56,119.94,66.56,123.65Zm27.93,0c0,4.4-3.5,7.29-6.76,8.12-2.35.59-5.22.9-6.09,1.4a4.27,4.27,0,0,0-.43.39,3.74,3.74,0,0,0-.44-.39c-.87-.5-3.74-.81-6.09-1.4l-.27-.08L92.9,117.81C93.53,120,94.49,121.46,94.49,123.65ZM93.18,109a15.44,15.44,0,0,0-.82,4.88,15,15,0,0,0,.17,2.24L72.69,131a8.36,8.36,0,0,1-4.77-7.1l22.8-17.11A7.5,7.5,0,0,0,93.18,109Zm-21.1-2.79a7.9,7.9,0,0,0,3.84,1.06,9,9,0,0,0,5.29-1.82,9,9,0,0,0,5.28,1.82,6.33,6.33,0,0,0,1.09-.09L68.16,121.76c.56-2.2,1.89-4,1.89-7.89a15.77,15.77,0,0,0-.81-4.88A7.57,7.57,0,0,0,72.08,106.2Z" fill="url(#NHL_SHIELD_5_-_430)"/><path d="M71,102.17s2.44,2.51,4.91,2.51A7.41,7.41,0,0,0,81.21,102v-1.69l-1.67,1.65a5.39,5.39,0,0,1-3.62,1.54,4.52,4.52,0,0,1-2.86-1.17l-2.59-2.14Z" fill="url(#NHL_SHIELD_4_-_430)"/><path d="M97.45,123.65c0,5.63-4,9.33-9.08,10.61-2.67.67-4.51.85-5.86,1.33-.18.17-1.3,1.39-1.3,1.39v1.77l2-2.1c1.86-.52,3-.58,5.51-1.21,5-1.3,9.58-5.69,9.58-11.79a11.8,11.8,0,0,0-1-4.83l-.89,0A12.12,12.12,0,0,1,97.45,123.65Z" fill="url(#NHL_SHIELD_3_-_430)"/><path d="M86.49,104.68c2.48,0,4.92-2.51,4.92-2.51l.54-2-2.6,2.14a4.5,4.5,0,0,1-2.86,1.17,5.37,5.37,0,0,1-3.61-1.54l-1.67-1.65V102A7.4,7.4,0,0,0,86.49,104.68Z" fill="url(#NHL_SHIELD_2_-_430)"/><path d="M66.82,105.92l-2.64.77,1.66.78s4.07-.35,5.17-5.3l-.54-2-1.16,3.18A3.83,3.83,0,0,1,66.82,105.92Z" fill="url(#NHL_SHIELD_1_-_430)"/><path d="M151.55,75.24h-3.28l.56-2.19c-1,0-2.07,0-3.17,0-.8,3.11-1.84,7.2-2,8h3.16c.26-1,1.09-4.28,1.09-4.28h2.67c2.7,0,5.71-1.09,6.59-3.18-.92-.14-1.93-.26-3-.37A2.82,2.82,0,0,1,151.55,75.24Z" fill="url(#Stanley_Cup_Word_Gradient)"/><path d="M98,74.88s-.07-.19-.2-.48C97,74.24,96,74.08,95,73.93l1.11,2.45L94.9,81.1h3.15l1.21-4.73L100.67,75c-.7-.16-1.46-.31-2.28-.47Z" fill="url(#Stanley_Cup_Word_Gradient-2)"/><path d="M83.68,72.88c-1,0-2.06-.07-3.13-.09-.54,2.12-1.87,7.31-2.13,8.31h10.3l.92-1.59H82l.84-3.29h6.24c.14-.58.25-1,.4-1.58H83.23Z" fill="url(#Stanley_Cup_Word_Gradient-3)"/><path d="M75.29,81.1l.93-1.59H69.14L70.8,73l-3.21.24-2,7.84Z" fill="url(#Stanley_Cup_Word_Gradient-4)"/><path d="M58.25,81.1h3.87c.19-.76,1.14-4.46,1.91-7.49L60.79,74l-1.18,4.61-1.7-4.32-2.27.22Z" fill="url(#Stanley_Cup_Word_Gradient-5)"/><path d="M48.76,81.1h3.15l1.65-6.44-3.23.27Z" fill="url(#Stanley_Cup_Word_Gradient-6)"/><path d="M32.37,81.1h3.48c.39-.72,1.65-3,1.65-3h5.44s.18,2.3.23,3h3.35c-.12-.8-.48-3.32-.85-5.81l-2.94.19.11,1.36H38.19l.63-1.14-3,.13Z" fill="url(#Stanley_Cup_Word_Gradient-7)"/><path d="M25,81.1h3.15c.16-.6.74-2.88,1.31-5.1L26.3,76C25.73,78.24,25.15,80.5,25,81.1Z" fill="url(#Stanley_Cup_Word_Gradient-8)"/><path d="M139.06,73.55c-.45,1.77-.88,3.44-.88,3.44-.44,1.74-1.93,2.72-4.2,2.72-3,0-3.06-1.7-2.81-2.72,0,0,.3-1.14.66-2.54l-3.27.42C128.25,76.07,128,77,128,77c-.77,3,.89,4.3,5.56,4.3s7-1.28,7.76-4.3l.95-3.71Z" fill="url(#Stanley_Cup_Word_Gradient-9)"/><path d="M119.67,82.65a23,23,0,0,0,5-.52c-.09-.64-.17-1.18-.25-1.74a16.1,16.1,0,0,1-3.88.43c-4.88,0-6.24-2.5-6.32-4.55-1.54.09-2.87.14-4,.16C110.3,79.59,113.22,82.65,119.67,82.65Z" fill="url(#Stanley_Cup_Word_Gradient-10)"/><path d="M13.12,75.45c1.9.8,3.63,1.54,3.22,3.17-.34,1.34-2,2.2-4.26,2.2A14,14,0,0,1,7.2,80c-.35.63-.64,1.16-1,1.72a15.14,15.14,0,0,0,5.76,1c3.29,0,7.39-1,8.11-3.78a2.9,2.9,0,0,0-.8-3Q15.89,75.72,13.12,75.45Z" fill="url(#Stanley_Cup_Word_Gradient-11)"/><path d="M43.09,96.67s1-3.85,1.74-6.79H41.67c-.8,3.15-1.92,7.53-2.14,8.36h9.72l.92-1.58Z" fill="url(#Stanley_Cup_Word_Gradient-12)"/><path d="M65.62,90.5l-2.83-.15L63.07,94H58.42l2.06-3.75-2.6-.11L52.6,98.25h3.49l1.64-3h5.44s.18,2.3.24,3h3.35C66.61,97.24,66.06,93.47,65.62,90.5Z" fill="url(#Stanley_Cup_Word_Gradient-13)"/><path d="M77.94,91.36l-2.59-.2-.84.87s-.16-.39-.41-1l-2.72-.19c.66,1.44,1.21,2.67,1.21,2.67l-1.21,4.71h3.16c.27-1.08,1.21-4.72,1.21-4.72Z" fill="url(#Stanley_Cup_Word_Gradient-14)"/><path d="M99.81,98.25H103l1.25-4.87h3.22c.13-.16.3-.35.5-.6-2.14,0-4.38-.07-6.69-.13C100.66,94.93,100,97.57,99.81,98.25Z" fill="url(#Stanley_Cup_Word_Gradient-15)"/><path d="M112.77,98.25h3.15c.28-1.06,1.25-4.87,1.25-4.87h3.22l.62-.72c-2.15.06-4.43.11-6.84.13C113.59,95,112.94,97.58,112.77,98.25Z" fill="url(#Stanley_Cup_Word_Gradient-16)"/><path d="M38.39,89.94,35.22,90a1.8,1.8,0,0,1-.06.32,2.82,2.82,0,0,1-2.57,2.05H29.31l.54-2.13-3.2.21c-.61,2.35-1.76,6.85-2,7.77h3.15L28.9,94h2.67c2.89,0,6.14-1.25,6.75-3.63A2.93,2.93,0,0,0,38.39,89.94Z" fill="url(#Stanley_Cup_Word_Gradient-17)"/><path d="M98,92.55l-3.56-.15s0,.06,0,.09c-.72,2.82-2.62,4.38-5.35,4.38S85.25,95.31,86,92.49c0-.19.1-.37.15-.54l-3.52-.24c-.09.27-.17.53-.23.78-.66,2.56-.72,6,6.3,6S97.36,95.1,98,92.55Z" fill="url(#Stanley_Cup_Word_Gradient-18)"/><path d="M133.21,95.26c-.26,1-1.56,1.61-3.4,1.61a12.06,12.06,0,0,1-3.9-.65l-.82,1.52a13.33,13.33,0,0,0,4.69.71c2.79,0,6-.78,6.53-3,.47-1.84-1.26-2.85-2.94-3.56l-4.68.36C130.65,93.38,133.59,93.77,133.21,95.26Z" fill="url(#Stanley_Cup_Word_Gradient-19)"/><path d="M93.11,103.34,92,100.16l-.54,2c1.1,5,5.17,5.3,5.17,5.3l1.65-.78-2.64-.77A3.82,3.82,0,0,1,93.11,103.34Z" fill="#d0d0d2"/><path d="M76.39,123.93l-2.13-3.26-2.36,1.77a.85.85,0,0,1,.82.89v6.14l1.67-1.25v-4.34l1.91,2.91,1.76-1.32v-7.66l-1.67,1.26Z" fill="#d0d0d2"/><path d="M83.16,116.81l-1.89,1.42V115.4l-2.54,1.91a.85.85,0,0,1,.83.89v6.14l1.71-1.29v-2.8l1.89-1.41v2.8l1.63-1.23v-7.65L83.16,114Z" fill="#d0d0d2"/><path d="M87.93,116.1v-5.7l-2.54,1.91a.84.84,0,0,1,.82.89v6.14L91,115.79a9.87,9.87,0,0,1,0-2Z" fill="#d0d0d2"/><polygon points="81.21 168.82 81.21 166.26 49.19 152.2 81.21 168.82" fill="#949ca1"/><path d="M152.57,64.81H133.3a20.44,20.44,0,0,0-9.86-2.48,21.54,21.54,0,0,0-10.68,2.48h-2.58a3.91,3.91,0,0,0-1-2.09c-1.06-4-5.46-5.47-7.41-5.93a5.7,5.7,0,0,0-1.73-2.48,3,3,0,0,0-.31-1.89V47.89a4.75,4.75,0,0,0-2-3.57,6.37,6.37,0,0,0,.16-1.44V37.54A4.8,4.8,0,0,0,96,34.21v-2.9l-.44-1.73c.14-2.41-2.41-3.84-2.41-3.84,4.59-2.36,8.94-6.84,9-17.35a3.83,3.83,0,0,0,.28-1.4V5.76c0-1.43,0-5.76-21.26-5.76S60,4.33,60,5.76V7a3.83,3.83,0,0,0,.28,1.4c.09,10.51,4.44,15,9,17.35,0,0-2.56,1.43-2.41,3.84l-.44,1.73,0,2.9a4.79,4.79,0,0,0-1.92,3.33v5.34a6.43,6.43,0,0,0,.15,1.44,4.75,4.75,0,0,0-2,3.57v4.53a3.06,3.06,0,0,0-.31,1.89,5.6,5.6,0,0,0-1.72,2.48c-1.95.46-6.35,2-7.42,5.93a4,4,0,0,0-1,2.09H26.65a18,18,0,0,0-9.53-2.48C9.42,62.33,5.24,66,4.3,69.64a7.85,7.85,0,0,0,.4,5.19L0,83.26s3.14,4.15,11.81,4.15a18.79,18.79,0,0,0,7.68-1.56H21s1.46,2.07,1.17,3.2l-3.77,14.59H28.2l7,37.51c1,5.38,5.7,11.9,10.49,14.53l35.55,19.58,35.54-19.58c4.79-2.63,9.5-9.15,10.5-14.53L134.33,103c3.3-1.18,5.84-3.52,6.61-6.51a6.44,6.44,0,0,0-.68-5.17L143,85.85h7.4l1.1-4.32s8.61-.48,10.37-7.34C163.36,68.49,158.49,64.81,152.57,64.81Zm7.85,9c-1,4.11-5.72,6.24-10.08,6.24l-1.09,4.27H142.1l-3.63,7.13a5.06,5.06,0,0,1,1,4.66c-.7,2.75-3.25,4.82-6.45,5.71l-7.26,39.05c-.92,5-5.3,11-9.73,13.47l-34.8,19.17L46.4,154.34c-4.43-2.44-8.81-8.5-9.73-13.47l-7.2-38.76H20.36l3.28-12.68c.44-1.68-.91-3.85-1.86-5.11H19.15a17.05,17.05,0,0,1-7.34,1.56c-6.94,0-9.9-2.9-9.9-2.9L6,75.7a17.67,17.67,0,0,0,2.91,1.38A6.13,6.13,0,0,1,5.78,70c.54-2.09,3.26-6.16,11.34-6.16a15.82,15.82,0,0,1,9.05,2.48H53.93a2.48,2.48,0,0,1,.59-2.79c.74-4.48,7.27-5.45,7.27-5.45a4.1,4.1,0,0,1,2.4-3.17,1.8,1.8,0,0,1,0-2.18V47.89c0-1.78,2.3-3,2.3-3s-.48-.47-.48-2V37.54C66,36.29,67.93,35,67.93,35l0-3.46.45-1.77c-.36-2.57,4.38-3.95,4.38-3.95l-.25-.28c-4.55-1.69-10.78-5-10.78-17.45A2.41,2.41,0,0,1,61.48,7V5.76c0-2.91,8.8-4.23,19.73-4.23s19.73,1.32,19.73,4.23V7a2.41,2.41,0,0,1-.27,1.06c0,12.42-6.24,15.76-10.78,17.45l-.25.28s4.73,1.38,4.38,3.95l.45,1.77,0,3.46s1.91,1.33,1.91,2.58v5.34c0,1.55-.48,2-.48,2s2.31,1.21,2.31,3v4.86a1.82,1.82,0,0,1,0,2.18,4.12,4.12,0,0,1,2.4,3.17s6.53,1,7.27,5.45a2.5,2.5,0,0,1,.59,2.79h4.68a19.73,19.73,0,0,1,10.27-2.48,17.86,17.86,0,0,1,9.39,2.48h19.74C157.92,66.34,161.52,69.5,160.42,73.81Z" fill="#bfc3c6"/><polygon points="81.21 168.82 113.23 152.2 81.21 166.26 81.21 168.82" fill="#bfc3c6"/><path d="M76.45,136.56c-11.59-.5-21.37-2.8-24.54-5.83,2.06,3.74,13.53,6.59,27.47,6.83l-.41-.44C77.9,136.85,77.18,136.71,76.45,136.56Z" fill="#bfc3c6"/><path d="M83.44,137.12l-.4.44c13.94-.24,25.41-3.09,27.46-6.83-3.16,3-13,5.33-24.53,5.83C85.23,136.71,84.51,136.85,83.44,137.12Z" fill="#bfc3c6"/><path d="M68.81,103.16l.39-1H59.89a63.34,63.34,0,0,0,8.83,1.27Z" fill="#bfc3c6"/><path d="M106.88,102.11h-1.42c-2.08.81-5.79,1.54-11.5,1.83a3.82,3.82,0,0,0,.7.87C101.92,104.16,105.38,103,106.88,102.11Z" fill="#bfc3c6"/><path d="M68.45,103.94c-5.7-.29-9.42-1-11.5-1.83H55.54c1.5.91,5,2,12.21,2.7A3.57,3.57,0,0,0,68.45,103.94Z" fill="#bfc3c6"/><path d="M93.6,103.16l.09.22a62.87,62.87,0,0,0,8.83-1.27h-9.3Z" fill="#bfc3c6"/><path d="M65.52,116.16a10.12,10.12,0,0,0,.25-2.28,11.09,11.09,0,0,0-.94-4.43l-1.37-3.09,3.15-.93a47.72,47.72,0,0,1-8.82-1.61l-.08,9.9a9.22,9.22,0,0,1-1.9-1.09l.08-9.53a4,4,0,0,1-1.11-.67l-.08,9.06C54.7,112.41,56.43,114.82,65.52,116.16Z" fill="#bfc3c6"/><path d="M99,106.36l-1.36,3.09a10.93,10.93,0,0,0-1,4.43,10.12,10.12,0,0,0,.25,2.28c9.1-1.34,10.83-3.75,10.82-4.67l-.08-9.06s-1.88,1.95-11.83,3Z" fill="#bfc3c6"/><path d="M65,118c.11-.3.23-.6.33-.92-10.21-1.59-11.07-4.51-11.07-4.51v1S55.05,116.37,65,118Z" fill="#bfc3c6"/><path d="M97.14,117.06c.1.32.21.62.33.92,9.9-1.61,10.73-4.46,10.73-4.46v-1S107.34,115.47,97.14,117.06Z" fill="#bfc3c6"/><path d="M107.68,115.36s-1.53,2.17-9.85,3.55a12.23,12.23,0,0,1-.77,10.94c9.63-1.61,12.36-4.56,10.75-6.17Z" fill="#bfc3c6"/><path d="M65.35,129.85a12.23,12.23,0,0,1-.77-10.94,34,34,0,0,1-6.86-1.76l-.12,8a2.62,2.62,0,0,0,.91,2s-2.83-.68-2.8-2.67l.12-8.22a4,4,0,0,1-1.1-.87l-.13,8.32C53,125.29,55.73,128.24,65.35,129.85Z" fill="#bfc3c6"/><path d="M59,130.52c-4.3-1.36-6.91-3.14-6.91-5.07a2.76,2.76,0,0,1,.82-1.83,2.75,2.75,0,0,0-1.2,2.07C51.73,127.54,54.48,129.23,59,130.52Z" fill="#bfc3c6"/><path d="M110.69,125.69a2.78,2.78,0,0,0-1.2-2.07,2.75,2.75,0,0,1,.81,1.83c0,1.93-2.6,3.71-6.91,5.07C107.93,129.23,110.69,127.54,110.69,125.69Z" fill="#bfc3c6"/><path d="M75,29.56v1l1.62-.1v-1Z" fill="#bfc3c6"/><path d="M86.85,29.91v-.39c-1.48-.1-3.33-.16-5.64-.16-1.2,0-2.26,0-3.22.05v1c1,0,2-.05,3.22-.05,2.29,0,4.15.06,5.64.16Z" fill="#bfc3c6"/><path d="M73.32,32.86v2.06c.86-.05,1.9-.1,3.16-.14V31.51a.92.92,0,0,1,.18-.53c-.69,0-1.33.07-1.91.12C74.39,31.26,73.33,31.86,73.32,32.86Z" fill="#bfc3c6"/><path d="M78.12,30.93a.82.82,0,0,0-.13.44v3.38c1,0,2,0,3.22,0,2.28,0,4.14,0,5.64.09V31c-1.55-.1-3.43-.16-5.64-.16C80.09,30.88,79.06,30.9,78.12,30.93Z" fill="#bfc3c6"/><path d="M76.51,35.42l-2.94.1a3.35,3.35,0,0,0-2,1.75c1.15-.07,2.59-.13,4.36-.17A6.09,6.09,0,0,1,76.51,35.42Z" fill="#bfc3c6"/><path d="M87,35.45c-1.53,0-3.44-.07-5.8-.07-1.23,0-2.33,0-3.31,0a5.8,5.8,0,0,0-.6,1.67l3.91,0c3.13,0,5.6.05,7.52.12A3,3,0,0,0,87,35.45Z" fill="#bfc3c6"/><path d="M75.9,37.58c-1.82,0-3.31.09-4.49.15v5c1.14,0,2.61-.1,4.49-.13Z" fill="#bfc3c6"/><path d="M77.27,37.56v5l3.94,0c3.23,0,5.71,0,7.62.09v-5c-2-.06-4.48-.11-7.62-.11C79.76,37.53,78.46,37.54,77.27,37.56Z" fill="#bfc3c6"/><path d="M76.09,43.49c-1.67.06-3.19.13-4.46.2,1.62,2.32-.88,2.43-1,4.52,1.32,0,2.89-.06,4.7-.08C75.2,45.66,77.16,45.53,76.09,43.49Z" fill="#bfc3c6"/><path d="M88.77,43.59c-2.21-.1-4.85-.19-7.56-.19-1.29,0-2.56,0-3.78.05,1.11,2.07-.86,2.19-.72,4.66l4.5,0c3.27,0,6.05,0,8.33.07C89.44,45.47,86.38,45.26,88.77,43.59Z" fill="#bfc3c6"/><path d="M75.33,48.88l-4.69,0v4.42l4.69,0Z" fill="#bfc3c6"/><path d="M89.52,53.3V48.89l-8.31,0H76.73v4.4h4.48C84.39,53.26,87.2,53.28,89.52,53.3Z" fill="#bfc3c6"/><path d="M74.6,58.8c-.27-2.58,2-2.46.87-4.57l-3.58,0C73.68,56,70,56.84,70.62,58.73Z" fill="#bfc3c6"/><path d="M76.9,54.22c1.17,2.12-1.15,2-.86,4.59l5.17,0c4.58,0,8.1,0,10.75-.1.67-2.36-3.1-2.1-1-4.46-2.34,0-5.54-.06-9.74-.06Z" fill="#bfc3c6"/><path d="M106.94,66a1.22,1.22,0,0,0,.19-.89c-10.66,1-25.93.78-25.93.78,15.64-.8,17.4-.57,17.4-1.91,0-2.24-5.31-3.63-7.53-4.12-2.48,0-5.69.07-9.86.07l-5,0c-.66.54-2.19,2.17-2,5.49,1.5,0,3.1,0,4.83,0a156.54,156.54,0,0,1-17.34.17.62.62,0,0,0-.08.78h41.53C105.93,66.14,106.94,66,106.94,66Z" fill="#bfc3c6"/><path d="M74.36,59.86l-4.79-.07C68.45,60,63.05,61,62.94,65c2.39.13,5.47.25,9.38.32C72.16,62,73.71,60.38,74.36,59.86Z" fill="#bfc3c6"/><path d="M81.21,25.17c-.76,0-1.51,0-2.2.07A3.24,3.24,0,0,1,78.92,27h-.17a.84.84,0,0,0-1.14.07h0a3.14,3.14,0,0,0,.24-1.71l-.79.08a1.91,1.91,0,0,1-.31,1.52,1.07,1.07,0,0,0-.9.31l-.31,0a1.25,1.25,0,0,0-.27,1l.28,0a.7.7,0,0,0,.44.55l-1,.07v.23L76.58,29v-.22a.72.72,0,0,0,.37-.61h.31a.79.79,0,0,0,.46.55,1,1,0,0,0,.27.07V29c1,0,2-.06,3.22-.06,2.27,0,4.13.08,5.64.19v-.23l-.38,0a.69.69,0,0,0,.45-.55l.27,0a.63.63,0,0,0,.26.6.7.7,0,0,0,.71.07.72.72,0,0,0,.3-.26,1.14,1.14,0,0,0-1.31-1.54.52.52,0,0,0-.24.11l-.33,0a1,1,0,0,0-1-.3,2.12,2.12,0,0,1-.38-1.55C84.17,25.28,82.72,25.17,81.21,25.17Zm-5.4,2.27c0,1.15.67,1,.8,1C76.24,29.1,75.15,28.6,75.81,27.44Zm.47.63c-.4-.09-.26-1.29.43-.93C76.53,27.4,76.68,28.17,76.28,28.07Zm11.6-.72c.32,0,.9,1,.38,1.15S87.57,27.33,87.88,27.35Zm-.32.28c.07,1.12.59,1,.79,1C88.09,29.16,87,28.81,87.56,27.63ZM84.43,27c.39,0,.91,1.22.35,1.22S84,27,84.43,27Zm-2.12-.14c.64,0,1,1.22.43,1.22S82,26.82,82.31,26.82Zm-4,.26c-.17.31.28,1-.18,1S77.65,26.55,78.36,27.08Zm-.82.25c.07,1.14.74,1.06.87,1C78.15,28.93,77,28.54,77.54,27.33Zm.89,1.37a.74.74,0,0,0,.39-.59h.41a.83.83,0,0,0,.45.57Zm1.13-1.39c.08,1.19.77,1.11.9,1.08C80.19,29,79,28.57,79.56,27.31Zm.74.73c-.69.21-.89-1.62,0-1.14C80.19,27.18,80.82,27.89,80.3,28Zm.27.62a.73.73,0,0,0,.34-.59h.59a.76.76,0,0,0,.34.59ZM82,27.25c.08,1.18.71,1.06.84,1C82.56,28.87,81.44,28.5,82,27.25Zm.75,1.42a.87.87,0,0,0,.45-.57h.4a.74.74,0,0,0,.39.59ZM84,27.28c.08,1.18.71,1.06.84,1C84.59,28.9,83.47,28.53,84,27.28Zm2.16-.16c.38-.05.87,1.15.34,1.13S85.8,27.16,86.18,27.12Zm-.3.34c.07,1.12.66,1,.78,1C86.41,29,85.35,28.64,85.88,27.46Zm-.42.72a.74.74,0,0,0,.37.61l-1.14-.07a.79.79,0,0,0,.46-.55Z" fill="#bfc3c6"/><path d="M77.43,23.33q-.51,0-1,.12v.37q.44-.08,1-.12Z" fill="#bfc3c6"/><path d="M78.67,23.59c.74,0,1.58-.07,2.54-.07A35.6,35.6,0,0,1,85,23.7v-.37a37.31,37.31,0,0,0-3.81-.18c-.93,0-1.77,0-2.54.07Z" fill="#bfc3c6"/><path d="M79.92,3.07a85.21,85.21,0,0,0-9.76.57l.08.91A84.59,84.59,0,0,1,79.78,4C79.82,3.69,79.87,3.38,79.92,3.07Z" fill="#bfc3c6"/><path d="M93.73,4.77q0-.43,0-.93-1.23-.19-2.79-.36c0,.31.09.63.12.94C92,4.52,92.93,4.64,93.73,4.77Z" fill="#bfc3c6"/><path d="M98.44,5.07a12.53,12.53,0,0,0-2-.67c0,.3,0,.61,0,.92a11.87,11.87,0,0,1,2,.66C98.43,5.68,98.43,5.38,98.44,5.07Z" fill="#bfc3c6"/><path d="M98.32,8c0-.48.06-1,.08-1.47a12.06,12.06,0,0,0-2-.67c0,.58-.08,1.08-.1,1.36h.1A2.72,2.72,0,0,1,98.32,8Z" fill="#bfc3c6"/><path d="M91.12,6.57a5.62,5.62,0,0,1,2.6,1.11c0-.37,0-1.18,0-2.36C93,5.19,92.06,5.08,91.07,5,91.11,5.51,91.12,6.05,91.12,6.57Z" fill="#bfc3c6"/><path d="M76.25,8a7.27,7.27,0,0,1,3.36-1.54c0-.63,0-1.27.11-1.92a88.38,88.38,0,0,0-9.43.55l.15,1.68a6,6,0,0,1,1.85-.28A5.52,5.52,0,0,1,76.25,8Z" fill="#bfc3c6"/><path d="M95.77,15.32c.38,0,.34-1.24,1-1.24s.48,1.17.48,1.17a46.11,46.11,0,0,0,1-6.64,2.37,2.37,0,0,0-1.85-.94,2.1,2.1,0,0,0-.51.06,16.43,16.43,0,0,1-1.08,6.56H95C95.83,14.28,95.3,15.32,95.77,15.32Z" fill="#bfc3c6"/><path d="M91.71,11.61c1.38,0-.12,2.21.66,2.53A16.27,16.27,0,0,0,93.43,8a5.17,5.17,0,0,0-2.31-1,32.37,32.37,0,0,1-.57,5.21h.09C91.24,12.24,91,11.61,91.71,11.61Z" fill="#bfc3c6"/><path d="M73.86,12c1.21,0,.19,1.9,1.6,1.9.78,0,.49-.79,1.47-.79,1.37,0,.79,1.58,1.69,1.58.72,0,.39-1,1.36-1a.8.8,0,0,1,.72.39,25.92,25.92,0,0,1-1.09-7.11,6.4,6.4,0,0,0-3.38,1.73,4.86,4.86,0,0,0-3.94-1.7,5.69,5.69,0,0,0-1.81.28L70.82,11a.63.63,0,0,1,.44-.14c1.2,0,.23,1.71,1.52,1.71C73.34,12.61,73.22,12,73.86,12Z" fill="#bfc3c6"/><path d="M72.92,30.49c-1,.12-1.63.25-2.12.36v-.68c-.94.26-1.08.48-1.08.48v.78s1-.59,5.24-.91v-1q-1.18.09-2,.21Z" fill="#a1a5aa"/><path d="M89,30.67a11,11,0,0,1,3.66.76v-.78s-.36-.56-3.66-.94Z" fill="#a1a5aa"/><path d="M72.1,31.88v2.61c-.68,0-1.2.12-1.59.17l0-3c-.71.18-1,.37-1,.53v3.18a17.46,17.46,0,0,1,3.85-.47V32.86c0-1,1.07-1.6,1.42-1.76-.87.06-1.62.14-2.26.22A.72.72,0,0,0,72.1,31.88Z" fill="#a1a5aa"/><path d="M92.94,32.21c0-.3-1.22-.71-3.91-1v3.7a17.34,17.34,0,0,1,3.93.47Z" fill="#a1a5aa"/><path d="M70.84,36.8c-.69,0-1.27.09-1.73.13a17.66,17.66,0,0,1,1.5-1.19,8.85,8.85,0,0,0-1.21.18,5.86,5.86,0,0,0-2.08,1.77,28.57,28.57,0,0,1,4.24-.42,3.35,3.35,0,0,1,2-1.75l-1.34.08A14.52,14.52,0,0,0,70.84,36.8Z" fill="#a1a5aa"/><path d="M91.1,37.28a27.07,27.07,0,0,1,4,.41A5.86,5.86,0,0,0,93,35.92a21.86,21.86,0,0,0-3.72-.37A3.4,3.4,0,0,1,91.1,37.28Z" fill="#a1a5aa"/><path d="M67.54,38v5a24,24,0,0,1,3.87-.33v-5l-1.17.07v4.42l-1.69.14V37.92Z" fill="#a1a5aa"/><path d="M94.87,43V38s-1.08-.15-3.71-.28v4.95A23.77,23.77,0,0,1,94.87,43Z" fill="#a1a5aa"/><path d="M65.72,48.37s1.7-.08,4.93-.16c.1-2.09,2.6-2.2,1-4.52l-1.08.07c1.32,2.82-1.28,2.61-1.67,4l-2.06.06c.29-1.67,3.47-1.47,2.2-3.92l-1.08.08C69.46,46.53,65.72,45.72,65.72,48.37Z" fill="#a1a5aa"/><path d="M96.7,48.37c0-2.65-3.75-1.84-2.22-4.43,0,0-1.36-.11-3.49-.24-2.41,1.82,1,1.85,1.11,4.52C95.11,48.29,96.7,48.37,96.7,48.37Z" fill="#a1a5aa"/><path d="M65.72,49V53.4s1.79,0,4.92-.08V48.9l-1.94,0V52.8l-2,0v-3.9Z" fill="#a1a5aa"/><path d="M96.7,49l-4.61,0v4.42l4.61.07Z" fill="#a1a5aa"/><path d="M71.89,54.27l-2.66,0c1,2.72-3,1.59-3,3.82-.87,0-1.53-.07-2-.1,0-2.13,3.9-1.16,3-3.68l-1.12,0c1,2.63-3,1-2.92,4,0,0,1.86.19,7.39.3C70,56.84,73.68,56,71.89,54.27Z" fill="#a1a5aa"/><path d="M94.48,58.66c3.46-.1,4.7-.23,4.7-.23.12-3.08-3.94-1.41-2.92-4,0,0-1,0-3.21-.09C90.84,56,94.87,56.18,94.48,58.66Z" fill="#a1a5aa"/><path d="M55.88,64.37a68.25,68.25,0,0,0,7.06.64c.11-4,5.51-5.05,6.63-5.22-5.85-.14-6.44-.34-6.44-.34S56.33,60,55.88,64.37Zm2.63-.12c-1.35-.14-1.93-.25-1.93-.25s.26-3.22,7-4C58.78,61.52,58.51,64.25,58.51,64.25Z" fill="#a1a5aa"/><path d="M99.29,59.45a34.16,34.16,0,0,1-5.31.31c2.83.42,8.53,1.7,8,5,0,0,2.4-.19,4.51-.38C106.08,60,99.29,59.45,99.29,59.45Z" fill="#a1a5aa"/><path d="M55.29,65a1.26,1.26,0,0,0,.18.92s1,.18,3.85.38h2.24a.62.62,0,0,1,.08-.78C57.55,65.36,55.29,65,55.29,65Z" fill="#a1a5aa"/><path d="M86.27,23.87a8.66,8.66,0,0,1,2.3.6c0-.36-.81-.72-2.3-1Z" fill="#a1a5aa"/><path d="M89,29.3a17.5,17.5,0,0,1,3.07.58l.19-.18a13.58,13.58,0,0,0-1.57-.38.42.42,0,0,0,.39-.34l.16,0a.33.33,0,1,0,.66,0c0,.4.37.5.45.14l.11,0c0-2.39-6.13-1.71-4.47-4.1a29.08,29.08,0,0,0-6.82-.66,28.89,28.89,0,0,0-6.8.66c1.66,2.39-4.47,1.71-4.47,4.1l.11,0c.07.36.47.26.44-.14,0,.5.68.6.68-.18h.08a.51.51,0,0,0,.44.49,14.16,14.16,0,0,0-1.56.38l.19.18A23.61,23.61,0,0,1,75,29.13V28.9a.61.61,0,0,0,.26-.6,1.25,1.25,0,0,1,.27-1,.78.78,0,0,0-.65-.11,1.59,1.59,0,0,0,.47-1.55l.9-.12a2.25,2.25,0,0,1-.41,1.74,1.07,1.07,0,0,1,.9-.31A1.91,1.91,0,0,0,77,25.41l.79-.08c.38,0,.79-.07,1.21-.09.69,0,1.44-.07,2.2-.07,1.51,0,3,.11,4,.22l1.25.14a1.89,1.89,0,0,0,.65,1.64,1.14,1.14,0,0,1,1.31,1.54.2.2,0,0,1,.34,0,.45.45,0,0,0,.23.33ZM92,29c0,.16.25.2.3.12C92.29,29.36,92,29.31,92,29Zm-.07-.67c.15,0,.56.53.33.7S91.87,28.38,91.94,28.32Zm-.63.36c.21.62.46.42.55.26C91.86,29.53,91.31,29.37,91.31,28.68Zm0-.65c.19,0,.68.74.43.87S91.15,28,91.34,28ZM70.89,28c-.36.76-.06.76,0,.61C70.83,29.84,70.05,29.07,70.89,28Zm0,.46c-.11-.05,0-.55.39-.57C71.07,28.1,71,28.59,70.84,28.5Zm2.75-1c-.2.22-.24.85-.5.75S73,27.37,73.59,27.47Zm-1.26.18c-.26.25-.29.82-.53.68S71.74,27.65,72.33,27.65Zm-.71.26c-.23.88.18.78.41.65C71.89,29.6,70.62,29.13,71.62,27.91Zm.22,1.38c.37-.14.44-.65.44-.65l.08,0a.6.6,0,0,0,.44.52Zm1-1.66c-.3,1.26.34,1,.51.91C73.2,29.58,71.74,28.89,72.87,27.63Zm.51,1.43s.27-.1.25-.61l.23,0a.64.64,0,0,0,.4.54Zm.8-1.49c-.11,1.13.6.92.72.9C74.59,29.28,73.45,28.75,74.18,27.57Zm.91-.25c-.24.25-.15.93-.46.84S74.37,27.18,75.09,27.32Zm15.33.45c.23,0,.89.83.53,1S90.26,27.79,90.42,27.77Zm-.15.32c.25,1.05.64.85.79.74C91,29.37,90.16,29.25,90.27,28.09Zm0,.87a.66.66,0,0,0,.33.33l-1-.15A.7.7,0,0,0,90,28.9C90,28.83,90.18,28.83,90.24,29Zm-.91-1.42c.32,0,.91,1,.39,1.09S89.05,27.53,89.33,27.54Zm-.25.26c.08,1.25.63,1.05.79,1C89.61,29.32,88.56,29,89.08,27.8Z" fill="#a1a5aa"/><path d="M73.84,24.47a9.63,9.63,0,0,1,2.63-.65v-.37l-.57.09v.2L74.82,24V23.8C74.18,24,73.84,24.24,73.84,24.47Z" fill="#a1a5aa"/><path d="M64.23,5.88,64.15,5c-.73.31-1.07.59-1.14.77v.92C63.09,6.49,63.45,6.2,64.23,5.88Z" fill="#a1a5aa"/><path d="M69.07,4.71,69,3.8c-1.18.18-2.16.38-2.95.58l.07.9A29.66,29.66,0,0,1,69.07,4.71Z" fill="#a1a5aa"/><path d="M63.28,7.68c0,.47,0,.92,0,1.37A3.11,3.11,0,0,1,66,7.22a3,3,0,0,1,2.14,1,5.62,5.62,0,0,1,1.16-.92l-.17-2c-1.18.18-2.16.37-3,.57l.1,1.11a2.62,2.62,0,0,0-1.89.53l-.09-1-.35.15C63.49,6.79,63.28,6.94,63.28,7.68Z" fill="#a1a5aa"/><path d="M68.12,8.89A2.72,2.72,0,0,0,66,7.67h0a44.78,44.78,0,0,0,.81,7.18.36.36,0,0,0-.28.17s-.12-.48-.45-.48c-.72,0-.17,1-.17,2,0,0-1.41-2.85-1.46-8.26A4.61,4.61,0,0,0,63.35,10c.73,10.8,6.54,12.84,10.07,14.18,0,0,.16-.29,1-.6C73.49,19.42,77,20.15,78,15c-.29,5.43-3.11,4.83-2.52,8.34l.56-.12c1-4.45,3.62-4.42,4.75-8.08C80.36,18.7,78,19.39,77.35,23l.46,0c1-3.74,5-4.66,6.21-8.78-.38,4.1-3.91,4.94-5.21,8.71l.44,0c1.91-4.56,7.73-4.81,8-9.76.88,4.89-5.75,6.28-6.87,9.72H81c2.45-4.46,6.84-2.68,8.88-9.93-.73,6.8-5.51,6.23-7.49,9.94l.57,0c2.68-3.81,6.8-2.43,8.87-8.93-.59,6.5-5.47,5.75-7.71,9l.53.05c4.06-3.9,6.2-2.36,8.9-7.49-1.44,5.1-5.09,4.56-8,7.59l.45.06c3.3-3.1,6.58-2.28,9.46-7C93.57,20.86,89,21,86.73,23.26l.52.12c4.47-3.16,7.47-3.36,9.61-6.93-1.7,3.81-6.2,4.77-9.12,7.07l.38.13c3.69-2.48,6.77-2.58,9.66-7.56C96,21.25,90.42,22.41,88.72,24a1.11,1.11,0,0,1,.28.24c3.52-1.34,9.33-3.38,10.06-14.18a4.77,4.77,0,0,0-.79-1.4,46.11,46.11,0,0,1-1,6.64s.29-1.17-.48-1.17-.64,1.24-1,1.24.06-1-.82-1h-.12c-.54.08-.41.79-.69.79-.48,0,.27-1.26-.78-1.26-.53,0-.46.36-.77.36a.67.67,0,0,1-.22,0c-.78-.32.72-2.53-.66-2.53-.69,0-.47.63-1.07.63h-.09c-.91-.1-.13-1.76-1.3-1.76s-.44,2.11-1.45,2.11c-.77,0-.52-.8-1.33-.8-1.3,0-.63,2.38-1.72,2.38-.76,0-.47-1-1.41-1-1.3,0-.47,1.57-1.58,1.57-.69,0-.84-.4-1.06-.72a.8.8,0,0,0-.72-.39c-1,0-.64,1-1.36,1-.9,0-.32-1.58-1.69-1.58-1,0-.69.79-1.47.79-1.41,0-.39-1.9-1.6-1.9-.64,0-.52.64-1.08.64-1.29,0-.32-1.71-1.52-1.71a.63.63,0,0,0-.44.14c-.47.4-.12,1.52-.62,1.52s-.51-.64-.56-1.15l-.31-3.64A4.41,4.41,0,0,0,68.12,8.89Zm-2,5.89c.45,0,.37,2.19.37,2.19C66.39,15.6,65.49,14.78,66.08,14.78Zm-.91,1.46c.84.84.58,2.11,1.33,3.22C65.38,18.39,65.58,17,65.17,16.24Zm31.25-1.46a.34.34,0,1,1,.67.05,7.8,7.8,0,0,1-2.32,3.4A7.68,7.68,0,0,0,96.42,14.78Zm-1.86.12c.11-.55.9-.16.76.21a8.25,8.25,0,0,1-3.47,4.06A7.39,7.39,0,0,0,94.56,14.9ZM93,14.5a.36.36,0,1,1,.7.12,9,9,0,0,1-3.45,4.1A9.35,9.35,0,0,0,93,14.5Zm-1.72-2.15c0-.61.9-.46.8,0-1.11,4.9-4.45,6.41-4.45,6.41A9.81,9.81,0,0,0,91.26,12.35Zm-2.5-.92c0-.86,1-.83,1-.15,0,2.05-2.15,6.3-4.59,7.21A9,9,0,0,0,88.76,11.43ZM86,12.7a.5.5,0,1,1,1,0c0,3.21-2.87,4.53-5.2,6.33C84.2,16.48,86,16.05,86,12.7Zm-3.22,1.43c.11-.89.92-.52.82-.14-1,3.81-2.57,2.73-4,5.2C81.12,15.88,82.42,17.09,82.77,14.13Zm-3.38.48a.57.57,0,1,1,1.14,0c0,1.7-1.74,2.38-3.65,5.52C78.24,17.36,79.39,16.55,79.39,14.61Zm-12-.7c.62,0,.55,1.88.46,3.39a5.17,5.17,0,0,0-.84-3A.39.39,0,0,1,67.4,13.91Zm-.77,1.61c.44,1.57.05,4.17,1.9,6C66,19.64,66.85,17.43,66.63,15.52Zm1.91-1.25c.91,4.42-1.36,4.48,1.25,7.84C66.27,19.92,68.85,17.23,68.54,14.27Zm8.39-.82a.65.65,0,0,1,.6.64c0,.39-.37.51-.44.93a11.08,11.08,0,0,1-1.93,4.28C76.85,15.64,75.65,13.45,76.93,13.45Zm-3.52-.75a.43.43,0,0,1,.45-.44c1,0,.23,4.66-.75,6.14C74.28,13.68,73.41,13,73.41,12.7Zm1.4,1.46c.72,6.14-2.38,5.53-1.19,9.3C70.66,20.5,75.16,18.87,74.81,14.16Zm-2.29,9.12c-3.16-2.09-.45-5.77-.45-10.26C73,17.74,70.23,20.18,72.52,23.28ZM71.27,11.2c.87,0,.4,3.47-.17,6.54.57-5.19-.29-5.54-.29-6.16A.42.42,0,0,1,71.27,11.2Zm-1,1.87c1,2.84-2.19,6.88,1.3,9.94C67,20.41,70.24,16.77,70.24,13.07Zm-1-.77c.93,0,.52,2.7.05,4.24.23-3-.55-3.22-.55-3.74A.49.49,0,0,1,69.24,12.3Z" fill="#a1a5aa"/><path d="M99.4,6.68V5.76c-.06-.17-.36-.41-1-.69,0,.31,0,.61,0,.91C99,6.26,99.33,6.51,99.4,6.68Z" fill="#a1a5aa"/><path d="M99.13,7.68c0-.74-.21-.89-.65-1.12l-.08,0c0,.5-.05,1-.08,1.47a4.45,4.45,0,0,1,.79,1.05C99.13,8.6,99.13,8.15,99.13,7.68Z" fill="#a1a5aa"/><path d="M119.9,160.36l-.57-1.22a.86.86,0,0,0-.29-1.67h-1.22v2.89h.55v-1.17h.39l.54,1.17Zm-.86-1.71h-.67V158H119a.32.32,0,0,1,.32.32A.32.32,0,0,1,119,158.65Z" fill="#231f20"/><path d="M121.4,158.92a2.54,2.54,0,1,0-2.54,2.53A2.54,2.54,0,0,0,121.4,158.92Zm-4.53,0a2,2,0,1,1,2,2A2,2,0,0,1,116.87,158.92Z" fill="#231f20"/><path d="M81.5,28.07h-.59a.73.73,0,0,1-.34.59h1.27A.76.76,0,0,1,81.5,28.07Z" fill="#231f20"/><path d="M75.81,27.44c-.66,1.16.43,1.66.8,1C76.48,28.48,75.78,28.59,75.81,27.44Z" fill="#231f20"/></g></g></svg>